<svg width="2645" height="616" xmlns="http://www.w3.org/2000/svg" xmlns:xlink="http://www.w3.org/1999/xlink" xml:space="preserve" overflow="hidden"><defs><linearGradient x1="150.323" y1="-20.625" x2="150.323" y2="321.271" gradientUnits="userSpaceOnUse" spreadMethod="reflect" id="fill0"><stop offset="0" stop-color="#FE3527"/><stop offset="0.025" stop-color="#FD3627"/><stop offset="0.05" stop-color="#FE3828"/><stop offset="0.075" stop-color="#FE3A29"/><stop offset="0.1" stop-color="#FD3C29"/><stop offset="0.125" stop-color="#FE3E2A"/><stop offset="0.15" stop-color="#FE3F2B"/><stop offset="0.175" stop-color="#FD412B"/><stop offset="0.2" stop-color="#FE432C"/><stop offset="0.225" stop-color="#FE442D"/><stop offset="0.25" stop-color="#FE462D"/><stop offset="0.275" stop-color="#FE472E"/><stop offset="0.3" stop-color="#FE482E"/><stop offset="0.325" stop-color="#FE4A2F"/><stop offset="0.35" stop-color="#FE4B2F"/><stop offset="0.375" stop-color="#FE4D30"/><stop offset="0.4" stop-color="#FE4E30"/><stop offset="0.425" stop-color="#FE4F31"/><stop offset="0.45" stop-color="#FE5031"/><stop offset="0.475" stop-color="#FD5132"/><stop offset="0.5" stop-color="#FE5232"/><stop offset="0.525" stop-color="#FE5333"/><stop offset="0.55" stop-color="#FE5433"/><stop offset="0.575" stop-color="#FE5533"/><stop offset="0.6" stop-color="#FE5634"/><stop offset="0.625" stop-color="#FE5734"/><stop offset="0.65" stop-color="#FE5834"/><stop offset="0.675" stop-color="#FD5935"/><stop offset="0.7" stop-color="#FE5935"/><stop offset="0.725" stop-color="#FE5A35"/><stop offset="0.75" stop-color="#FD5A35"/><stop offset="0.775" stop-color="#FE5B36"/><stop offset="0.8" stop-color="#FD5B36"/><stop offset="0.825" stop-color="#FE5C36"/><stop offset="0.85" stop-color="#FE5C36"/><stop offset="0.875" stop-color="#FD5D36"/><stop offset="0.9" stop-color="#FE5D36"/><stop offset="0.925" stop-color="#FE5D36"/><stop offset="0.95" stop-color="#FE5D36"/><stop offset="0.975" stop-color="#FE5D36"/><stop offset="1" stop-color="#FE5E37"/></linearGradient><linearGradient x1="1506.8" y1="696.375" x2="1506.8" y2="916.061" gradientUnits="userSpaceOnUse" spreadMethod="reflect" id="fill1"><stop offset="0" stop-color="#FE5E37"/><stop offset="0.0113636" stop-color="#FE5F37"/><stop offset="0.0227273" stop-color="#FE6138"/><stop offset="0.0340909" stop-color="#FE6339"/><stop offset="0.0454545" stop-color="#FE653A"/><stop offset="0.0568182" stop-color="#FE673A"/><stop offset="0.0681818" stop-color="#FE693B"/><stop offset="0.0795455" stop-color="#FE6A3C"/><stop offset="0.0909091" stop-color="#FE6C3C"/><stop offset="0.102273" stop-color="#FE6E3D"/><stop offset="0.113636" stop-color="#FE703E"/><stop offset="0.125" stop-color="#FE713E"/><stop offset="0.136364" stop-color="#FE733F"/><stop offset="0.147727" stop-color="#FE7540"/><stop offset="0.159091" stop-color="#FE7640"/><stop offset="0.170455" stop-color="#FE7841"/><stop offset="0.181818" stop-color="#FE7942"/><stop offset="0.193182" stop-color="#FE7B42"/><stop offset="0.204545" stop-color="#FE7D43"/><stop offset="0.215909" stop-color="#FE7E44"/><stop offset="0.227273" stop-color="#FE8044"/><stop offset="0.238636" stop-color="#FE8145"/><stop offset="0.25" stop-color="#FE8346"/><stop offset="0.261364" stop-color="#FD8446"/><stop offset="0.272727" stop-color="#FE8647"/><stop offset="0.284091" stop-color="#FE8747"/><stop offset="0.295455" stop-color="#FE8848"/><stop offset="0.306818" stop-color="#FE8A48"/><stop offset="0.318182" stop-color="#FE8B49"/><stop offset="0.329545" stop-color="#FE8C49"/><stop offset="0.340909" stop-color="#FE8E4A"/><stop offset="0.352273" stop-color="#FE8F4B"/><stop offset="0.363636" stop-color="#FE904B"/><stop offset="0.375" stop-color="#FE924C"/><stop offset="0.386364" stop-color="#FE934C"/><stop offset="0.397727" stop-color="#FE944D"/><stop offset="0.409091" stop-color="#FD954D"/><stop offset="0.420455" stop-color="#FE964E"/><stop offset="0.431818" stop-color="#FE984E"/><stop offset="0.443182" stop-color="#FE994E"/><stop offset="0.454545" stop-color="#FE9A4F"/><stop offset="0.465909" stop-color="#FD9B4F"/><stop offset="0.477273" stop-color="#FE9C50"/><stop offset="0.488636" stop-color="#FD9D50"/><stop offset="0.5" stop-color="#FE9E51"/><stop offset="0.511364" stop-color="#FE9F51"/><stop offset="0.522727" stop-color="#FEA052"/><stop offset="0.534091" stop-color="#FDA152"/><stop offset="0.545455" stop-color="#FEA252"/><stop offset="0.556818" stop-color="#FEA353"/><stop offset="0.568182" stop-color="#FEA453"/><stop offset="0.579545" stop-color="#FDA553"/><stop offset="0.590909" stop-color="#FEA654"/><stop offset="0.602273" stop-color="#FEA754"/><stop offset="0.613636" stop-color="#FEA854"/><stop offset="0.625" stop-color="#FEA855"/><stop offset="0.636364" stop-color="#FEA955"/><stop offset="0.647727" stop-color="#FDAA55"/><stop offset="0.659091" stop-color="#FDAB56"/><stop offset="0.670455" stop-color="#FEAB56"/><stop offset="0.681818" stop-color="#FDAC56"/><stop offset="0.693182" stop-color="#FEAD57"/><stop offset="0.704545" stop-color="#FEAD57"/><stop offset="0.715909" stop-color="#FEAE57"/><stop offset="0.727273" stop-color="#FEAF57"/><stop offset="0.738636" stop-color="#FEAF58"/><stop offset="0.75" stop-color="#FDB058"/><stop offset="0.761364" stop-color="#FDB058"/><stop offset="0.772727" stop-color="#FEB158"/><stop offset="0.784091" stop-color="#FEB158"/><stop offset="0.795455" stop-color="#FEB259"/><stop offset="0.806818" stop-color="#FEB259"/><stop offset="0.818182" stop-color="#FEB359"/><stop offset="0.829545" stop-color="#FEB359"/><stop offset="0.840909" stop-color="#FDB459"/><stop offset="0.852273" stop-color="#FEB45A"/><stop offset="0.863636" stop-color="#FEB45A"/><stop offset="0.875" stop-color="#FDB55A"/><stop offset="0.886364" stop-color="#FEB55A"/><stop offset="0.897727" stop-color="#FEB55A"/><stop offset="0.909091" stop-color="#FEB65A"/><stop offset="0.920455" stop-color="#FEB65A"/><stop offset="0.931818" stop-color="#FEB65A"/><stop offset="0.943182" stop-color="#FEB65A"/><stop offset="0.954545" stop-color="#FEB65A"/><stop offset="0.965909" stop-color="#FEB65A"/><stop offset="0.977273" stop-color="#FEB65A"/><stop offset="0.988636" stop-color="#FEB65A"/><stop offset="1" stop-color="#FEB75B"/></linearGradient><linearGradient x1="124.553" y1="-20.625" x2="124.553" y2="272.298" gradientUnits="userSpaceOnUse" spreadMethod="reflect" id="fill2"><stop offset="0" stop-color="#FEFA76"/><stop offset="0.0151515" stop-color="#FEF975"/><stop offset="0.030303" stop-color="#FEF975"/><stop offset="0.0454545" stop-color="#FEF975"/><stop offset="0.0606061" stop-color="#FEF975"/><stop offset="0.0757576" stop-color="#FEF975"/><stop offset="0.0909091" stop-color="#FEF975"/><stop offset="0.106061" stop-color="#FEF975"/><stop offset="0.121212" stop-color="#FEF875"/><stop offset="0.136364" stop-color="#FEF875"/><stop offset="0.151515" stop-color="#FEF875"/><stop offset="0.166667" stop-color="#FDF775"/><stop offset="0.181818" stop-color="#FEF774"/><stop offset="0.19697" stop-color="#FEF674"/><stop offset="0.212121" stop-color="#FEF674"/><stop offset="0.227273" stop-color="#FEF574"/><stop offset="0.242424" stop-color="#FEF574"/><stop offset="0.257576" stop-color="#FEF473"/><stop offset="0.272727" stop-color="#FEF473"/><stop offset="0.287879" stop-color="#FEF373"/><stop offset="0.30303" stop-color="#FEF273"/><stop offset="0.318182" stop-color="#FEF272"/><stop offset="0.333333" stop-color="#FDF172"/><stop offset="0.348485" stop-color="#FEF072"/><stop offset="0.363636" stop-color="#FEEF71"/><stop offset="0.378788" stop-color="#FEEF71"/><stop offset="0.393939" stop-color="#FEEE71"/><stop offset="0.409091" stop-color="#FDED70"/><stop offset="0.424242" stop-color="#FDEC70"/><stop offset="0.439394" stop-color="#FEEB70"/><stop offset="0.454545" stop-color="#FEEA6F"/><stop offset="0.469697" stop-color="#FEE96F"/><stop offset="0.484848" stop-color="#FDE86F"/><stop offset="0.5" stop-color="#FEE76E"/><stop offset="0.515152" stop-color="#FEE66E"/><stop offset="0.530303" stop-color="#FDE56D"/><stop offset="0.545455" stop-color="#FEE46D"/><stop offset="0.560606" stop-color="#FEE36C"/><stop offset="0.575758" stop-color="#FDE26C"/><stop offset="0.590909" stop-color="#FEE16B"/><stop offset="0.606061" stop-color="#FDDF6B"/><stop offset="0.621212" stop-color="#FEDE6A"/><stop offset="0.636364" stop-color="#FEDD6A"/><stop offset="0.651515" stop-color="#FEDB69"/><stop offset="0.666667" stop-color="#FEDA69"/><stop offset="0.681818" stop-color="#FDD968"/><stop offset="0.69697" stop-color="#FED768"/><stop offset="0.712121" stop-color="#FED667"/><stop offset="0.727273" stop-color="#FED567"/><stop offset="0.742424" stop-color="#FED366"/><stop offset="0.757576" stop-color="#FED265"/><stop offset="0.772727" stop-color="#FED065"/><stop offset="0.787879" stop-color="#FDCF64"/><stop offset="0.80303" stop-color="#FDCD64"/><stop offset="0.818182" stop-color="#FECC63"/><stop offset="0.833333" stop-color="#FECA62"/><stop offset="0.848485" stop-color="#FEC862"/><stop offset="0.863636" stop-color="#FEC761"/><stop offset="0.878788" stop-color="#FEC560"/><stop offset="0.893939" stop-color="#FEC360"/><stop offset="0.909091" stop-color="#FEC15F"/><stop offset="0.924242" stop-color="#FEC05E"/><stop offset="0.939394" stop-color="#FEBE5D"/><stop offset="0.954545" stop-color="#FEBC5D"/><stop offset="0.969697" stop-color="#FEBA5C"/><stop offset="0.984848" stop-color="#FEB85B"/><stop offset="1" stop-color="#FEB75B"/></linearGradient><linearGradient x1="3706.58" y1="946.465" x2="1696.79" y2="946.465" gradientUnits="userSpaceOnUse" spreadMethod="reflect" id="fill3"><stop offset="0" stop-color="#FE3527"/><stop offset="0.74" stop-color="#FE5E37"/><stop offset="0.83" stop-color="#FEB75B"/><stop offset="1" stop-color="#FEFA76"/></linearGradient><linearGradient x1="1436.5" y1="818.125" x2="1436.5" y2="1127.88" gradientUnits="userSpaceOnUse" spreadMethod="reflect" id="stroke4"><stop offset="0" stop-color="#FE3527"/><stop offset="0.025" stop-color="#FD3627"/><stop offset="0.05" stop-color="#FE3828"/><stop offset="0.075" stop-color="#FE3A29"/><stop offset="0.1" stop-color="#FD3C29"/><stop offset="0.125" stop-color="#FE3E2A"/><stop offset="0.15" stop-color="#FE3F2B"/><stop offset="0.175" stop-color="#FD412B"/><stop offset="0.2" stop-color="#FE432C"/><stop offset="0.225" stop-color="#FE442D"/><stop offset="0.25" stop-color="#FE462D"/><stop offset="0.275" stop-color="#FE472E"/><stop offset="0.3" stop-color="#FE482E"/><stop offset="0.325" stop-color="#FE4A2F"/><stop offset="0.35" stop-color="#FE4B2F"/><stop offset="0.375" stop-color="#FE4D30"/><stop offset="0.4" stop-color="#FE4E30"/><stop offset="0.425" stop-color="#FE4F31"/><stop offset="0.45" stop-color="#FE5031"/><stop offset="0.475" stop-color="#FD5132"/><stop offset="0.5" stop-color="#FE5232"/><stop offset="0.525" stop-color="#FE5333"/><stop offset="0.55" stop-color="#FE5433"/><stop offset="0.575" stop-color="#FE5533"/><stop offset="0.6" stop-color="#FE5634"/><stop offset="0.625" stop-color="#FE5734"/><stop offset="0.65" stop-color="#FE5834"/><stop offset="0.675" stop-color="#FD5935"/><stop offset="0.7" stop-color="#FE5935"/><stop offset="0.725" stop-color="#FE5A35"/><stop offset="0.75" stop-color="#FD5A35"/><stop offset="0.775" stop-color="#FE5B36"/><stop offset="0.8" stop-color="#FD5B36"/><stop offset="0.825" stop-color="#FE5C36"/><stop offset="0.85" stop-color="#FE5C36"/><stop offset="0.875" stop-color="#FD5D36"/><stop offset="0.9" stop-color="#FE5D36"/><stop offset="0.925" stop-color="#FE5D36"/><stop offset="0.95" stop-color="#FE5D36"/><stop offset="0.975" stop-color="#FE5D36"/><stop offset="1" stop-color="#FE5E37"/></linearGradient><linearGradient x1="1568.88" y1="1175.4" x2="1477.28" y2="1175.4" gradientUnits="userSpaceOnUse" spreadMethod="reflect" id="stroke5"><stop offset="0" stop-color="#FEB75B"/><stop offset="0.00775194" stop-color="#FEB65A"/><stop offset="0.0155039" stop-color="#FEB65A"/><stop offset="0.0232558" stop-color="#FEB65A"/><stop offset="0.0310078" stop-color="#FEB65A"/><stop offset="0.0387597" stop-color="#FEB65A"/><stop offset="0.0465116" stop-color="#FEB65A"/><stop offset="0.0542636" stop-color="#FEB65A"/><stop offset="0.0620155" stop-color="#FEB65A"/><stop offset="0.0697674" stop-color="#FEB65A"/><stop offset="0.0775194" stop-color="#FEB55A"/><stop offset="0.0852713" stop-color="#FEB55A"/><stop offset="0.0930233" stop-color="#FEB55A"/><stop offset="0.100775" stop-color="#FEB55A"/><stop offset="0.108527" stop-color="#FEB45A"/><stop offset="0.116279" stop-color="#FEB45A"/><stop offset="0.124031" stop-color="#FEB459"/><stop offset="0.131783" stop-color="#FEB459"/><stop offset="0.139535" stop-color="#FEB359"/><stop offset="0.147287" stop-color="#FEB359"/><stop offset="0.155039" stop-color="#FEB359"/><stop offset="0.162791" stop-color="#FEB259"/><stop offset="0.170543" stop-color="#FEB259"/><stop offset="0.178295" stop-color="#FEB158"/><stop offset="0.186047" stop-color="#FEB158"/><stop offset="0.193798" stop-color="#FEB158"/><stop offset="0.20155" stop-color="#FEB058"/><stop offset="0.209302" stop-color="#FEB058"/><stop offset="0.217054" stop-color="#FEAF58"/><stop offset="0.224806" stop-color="#FEAF57"/><stop offset="0.232558" stop-color="#FEAE57"/><stop offset="0.24031" stop-color="#FEAE57"/><stop offset="0.248062" stop-color="#FEAD57"/><stop offset="0.255814" stop-color="#FDAC56"/><stop offset="0.263566" stop-color="#FDAC56"/><stop offset="0.271318" stop-color="#FEAB56"/><stop offset="0.27907" stop-color="#FEAB56"/><stop offset="0.286822" stop-color="#FEAA55"/><stop offset="0.294574" stop-color="#FEA955"/><stop offset="0.302326" stop-color="#FEA955"/><stop offset="0.310078" stop-color="#FEA855"/><stop offset="0.317829" stop-color="#FEA754"/><stop offset="0.325581" stop-color="#FEA754"/><stop offset="0.333333" stop-color="#FDA654"/><stop offset="0.341085" stop-color="#FEA554"/><stop offset="0.348837" stop-color="#FEA453"/><stop offset="0.356589" stop-color="#FEA453"/><stop offset="0.364341" stop-color="#FDA353"/><stop offset="0.372093" stop-color="#FEA252"/><stop offset="0.379845" stop-color="#FEA152"/><stop offset="0.387597" stop-color="#FDA152"/><stop offset="0.395349" stop-color="#FDA051"/><stop offset="0.403101" stop-color="#FE9F51"/><stop offset="0.410853" stop-color="#FE9E51"/><stop offset="0.418605" stop-color="#FE9D50"/><stop offset="0.426357" stop-color="#FE9C50"/><stop offset="0.434109" stop-color="#FE9B50"/><stop offset="0.44186" stop-color="#FD9A4F"/><stop offset="0.449612" stop-color="#FE994F"/><stop offset="0.457364" stop-color="#FD994F"/><stop offset="0.465116" stop-color="#FD984E"/><stop offset="0.472868" stop-color="#FE974E"/><stop offset="0.48062" stop-color="#FE964D"/><stop offset="0.488372" stop-color="#FE954D"/><stop offset="0.496124" stop-color="#FE944D"/><stop offset="0.503876" stop-color="#FE934C"/><stop offset="0.511628" stop-color="#FE914C"/><stop offset="0.51938" stop-color="#FE904B"/><stop offset="0.527132" stop-color="#FE8F4B"/><stop offset="0.534884" stop-color="#FE8E4A"/><stop offset="0.542636" stop-color="#FD8D4A"/><stop offset="0.550388" stop-color="#FE8C4A"/><stop offset="0.55814" stop-color="#FE8B49"/><stop offset="0.565891" stop-color="#FE8A49"/><stop offset="0.573643" stop-color="#FE8948"/><stop offset="0.581395" stop-color="#FD8748"/><stop offset="0.589147" stop-color="#FE8647"/><stop offset="0.596899" stop-color="#FE8547"/><stop offset="0.604651" stop-color="#FE8446"/><stop offset="0.612403" stop-color="#FE8346"/><stop offset="0.620155" stop-color="#FE8145"/><stop offset="0.627907" stop-color="#FE8045"/><stop offset="0.635659" stop-color="#FE7F44"/><stop offset="0.643411" stop-color="#FE7E44"/><stop offset="0.651163" stop-color="#FE7C43"/><stop offset="0.658915" stop-color="#FD7B43"/><stop offset="0.666667" stop-color="#FE7A42"/><stop offset="0.674419" stop-color="#FE7842"/><stop offset="0.682171" stop-color="#FE7741"/><stop offset="0.689922" stop-color="#FE7641"/><stop offset="0.697674" stop-color="#FE7440"/><stop offset="0.705426" stop-color="#FE733F"/><stop offset="0.713178" stop-color="#FE723F"/><stop offset="0.72093" stop-color="#FE703E"/><stop offset="0.728682" stop-color="#FE6F3E"/><stop offset="0.736434" stop-color="#FE6D3D"/><stop offset="0.744186" stop-color="#FE6C3D"/><stop offset="0.751938" stop-color="#FD6A3C"/><stop offset="0.75969" stop-color="#FE693B"/><stop offset="0.767442" stop-color="#FE673B"/><stop offset="0.775194" stop-color="#FE663A"/><stop offset="0.782946" stop-color="#FE643A"/><stop offset="0.790698" stop-color="#FE6339"/><stop offset="0.79845" stop-color="#FE6138"/><stop offset="0.806202" stop-color="#FE6038"/><stop offset="0.813953" stop-color="#FE5E37"/><stop offset="0.821705" stop-color="#FE5D37"/><stop offset="0.829457" stop-color="#FE5B36"/><stop offset="0.837209" stop-color="#FE5935"/><stop offset="0.844961" stop-color="#FE5835"/><stop offset="0.852713" stop-color="#FD5634"/><stop offset="0.860465" stop-color="#FE5433"/><stop offset="0.868217" stop-color="#FE5333"/><stop offset="0.875969" stop-color="#FE5132"/><stop offset="0.883721" stop-color="#FE4F31"/><stop offset="0.891473" stop-color="#FD4E31"/><stop offset="0.899225" stop-color="#FE4C30"/><stop offset="0.906977" stop-color="#FE4A2F"/><stop offset="0.914729" stop-color="#FE492F"/><stop offset="0.922481" stop-color="#FE472E"/><stop offset="0.930233" stop-color="#FE452D"/><stop offset="0.937984" stop-color="#FE432C"/><stop offset="0.945736" stop-color="#FE412C"/><stop offset="0.953488" stop-color="#FE402B"/><stop offset="0.96124" stop-color="#FE3E2A"/><stop offset="0.968992" stop-color="#FE3C29"/><stop offset="0.976744" stop-color="#FE3A29"/><stop offset="0.984496" stop-color="#FE3828"/><stop offset="0.992248" stop-color="#FE3627"/><stop offset="1" stop-color="#FE3527"/></linearGradient></defs><g transform="translate(-1115 -622)"><path d="M4.86136-4.86136 305.507 295.785 295.785 305.507-4.86136 4.86136ZM-14.5841 14.5841C-22.6386 6.52951-22.6386-6.52951-14.5841-14.5841-6.52951-22.6386 6.52951-22.6386 14.5841-14.5841 22.6386-6.52951 22.6386 6.52951 14.5841 14.5841 6.52951 22.6386-6.52951 22.6386-14.5841 14.5841ZM315.23 286.062C323.285 294.117 323.285 307.176 315.23 315.23 307.176 323.285 294.117 323.285 286.062 315.23 278.007 307.176 278.007 294.117 286.062 286.062 294.117 278.007 307.176 278.007 315.23 286.062Z" fill="url(#fill0)" transform="matrix(1 0 0 -1 1136 1017.65)"/><path d="M1572.22 899.709 1430.61 721.274 1441.39 712.726 1582.99 891.162ZM1593.76 882.615C1600.84 891.537 1599.35 904.511 1590.43 911.592 1581.5 918.672 1568.53 917.179 1561.45 908.257 1554.37 899.334 1555.86 886.361 1564.78 879.28 1573.71 872.199 1586.68 873.692 1593.76 882.615ZM1419.84 729.821C1412.76 720.899 1414.26 707.925 1423.18 700.844 1432.1 693.763 1445.07 695.256 1452.16 704.179 1459.24 713.102 1457.74 726.075 1448.82 733.156 1439.9 740.237 1426.92 738.744 1419.84 729.821Z" fill="url(#fill1)"/><path d="M4.88622-4.83637 253.991 246.837 244.219 256.51-4.88622 4.83637ZM-14.6587 14.5091C-22.6718 6.41332-22.6049-6.64553-14.5091-14.6587-6.41332-22.6718 6.64553-22.6049 14.6587-14.5091 22.6718-6.41332 22.6049 6.64553 14.5091 14.6587 6.41332 22.6718-6.64553 22.6049-14.6587 14.5091ZM263.764 237.164C271.777 245.26 271.71 258.319 263.614 266.332 255.519 274.345 242.46 274.278 234.447 266.182 226.433 258.087 226.5 245.028 234.596 237.015 242.692 229.002 255.751 229.068 263.764 237.164Z" fill="url(#fill2)" transform="matrix(-1 0 0 1 1827.11 643)"/><path d="M3311.45 963.539C3304.2 963.539 3298.75 964.802 3295.09 967.326 3291.44 969.851 3289.61 973.422 3289.61 978.041 3289.61 981.801 3290.86 984.796 3293.36 987.025 3295.86 989.254 3299.2 990.368 3303.39 990.368 3307.26 990.368 3310.9 989.428 3314.31 987.548 3317.72 985.668 3320.28 983.144 3322 979.975L3322 963.539ZM2202.24 931.716C2193.75 931.716 2187.79 935.422 2184.35 942.834L2184.35 978.767C2187.85 986.34 2193.86 990.126 2202.4 990.126 2208.52 990.126 2213.25 987.844 2216.58 983.278 2219.91 978.713 2221.63 971.811 2221.74 962.573L2221.74 960.075C2221.74 950.622 2220.07 943.532 2216.74 938.806 2213.41 934.079 2208.58 931.716 2202.24 931.716ZM3605.87 931.393C3600.5 931.393 3596.16 933.273 3592.86 937.033 3589.56 940.793 3587.45 946.03 3586.53 952.744L3623.84 952.744 3623.84 951.293C3623.41 944.741 3621.66 939.786 3618.6 936.429 3615.54 933.072 3611.29 931.393 3605.87 931.393ZM2871.87 931.393C2866.5 931.393 2862.16 933.273 2858.86 937.033 2855.56 940.793 2853.45 946.03 2852.53 952.744L2889.84 952.744 2889.84 951.293C2889.41 944.741 2887.66 939.786 2884.6 936.429 2881.54 933.072 2877.29 931.393 2871.87 931.393ZM2490.6 931.393C2484.2 931.393 2479.13 933.931 2475.37 939.007 2471.61 944.083 2469.73 951.669 2469.73 961.767 2469.73 970.737 2471.58 977.759 2475.29 982.835 2478.99 987.911 2484.15 990.449 2490.76 990.449 2497.36 990.449 2502.51 987.871 2506.19 982.714 2509.86 977.558 2511.7 970.012 2511.7 960.075 2511.7 951.267 2509.81 944.284 2506.02 939.128 2502.24 933.972 2497.09 931.393 2490.6 931.393ZM2293.87 931.393C2288.5 931.393 2284.16 933.273 2280.86 937.033 2277.56 940.793 2275.45 946.03 2274.53 952.744L2311.84 952.744 2311.84 951.293C2311.41 944.741 2309.66 939.786 2306.6 936.429 2303.54 933.072 2299.3 931.393 2293.87 931.393ZM1823.6 931.393C1817.2 931.393 1812.13 933.931 1808.37 939.007 1804.61 944.083 1802.73 951.669 1802.73 961.767 1802.73 970.737 1804.58 977.759 1808.29 982.835 1811.99 987.911 1817.15 990.449 1823.76 990.449 1830.36 990.449 1835.51 987.871 1839.19 982.714 1842.86 977.558 1844.7 970.012 1844.7 960.075 1844.7 951.267 1842.81 944.284 1839.02 939.128 1835.24 933.972 1830.09 931.393 1823.6 931.393ZM3395.75 917.294 3416.86 917.294 3435.31 976.43 3453.04 917.294 3473.9 917.294 3439.26 1017.68C3433.94 1032.34 3424.92 1039.67 3412.19 1039.67 3409.34 1039.67 3406.2 1039.19 3402.76 1038.22L3402.76 1023 3406.47 1023.24C3411.41 1023.24 3415.13 1022.34 3417.63 1020.54 3420.12 1018.74 3422.1 1015.73 3423.55 1011.49L3426.37 1004ZM2072.37 917.294 2091.95 917.294 2091.95 973.53C2091.95 984.594 2096.54 990.126 2105.73 990.126 2115.24 990.126 2121.65 986.716 2124.98 979.894L2124.98 917.294 2144.56 917.294 2144.56 1004.47 2126.11 1004.47 2125.63 995.927C2119.88 1002.69 2111.72 1006.08 2101.14 1006.08 2091.68 1006.08 2084.53 1003.31 2079.67 997.78 2074.8 992.248 2072.37 984.245 2072.37 973.771ZM1880.37 917.294 1899.95 917.294 1899.95 973.53C1899.95 984.594 1904.54 990.126 1913.73 990.126 1923.24 990.126 1929.65 986.716 1932.98 979.894L1932.98 917.294 1952.56 917.294 1952.56 1004.47 1934.11 1004.47 1933.63 995.927C1927.88 1002.69 1919.72 1006.08 1909.14 1006.08 1899.68 1006.08 1892.53 1003.31 1887.67 997.78 1882.8 992.248 1880.37 984.245 1880.37 973.771ZM1697.75 917.294 1718.86 917.294 1737.31 976.43 1755.04 917.294 1775.9 917.294 1741.26 1017.68C1735.94 1032.34 1726.92 1039.67 1714.19 1039.67 1711.34 1039.67 1708.2 1039.19 1704.76 1038.22L1704.76 1023 1708.47 1023.24C1713.41 1023.24 1717.13 1022.34 1719.63 1020.54 1722.12 1018.74 1724.1 1015.73 1725.55 1011.49L1728.37 1004ZM3697.61 915.683C3700.4 915.683 3702.71 916.059 3704.54 916.811L3704.46 935.18C3701.88 934.75 3699.22 934.536 3696.48 934.536 3687.51 934.536 3681.47 937.973 3678.35 944.848L3678.35 1004.47 3658.78 1004.47 3658.78 917.294 3677.47 917.294 3677.95 927.043C3682.68 919.47 3689.23 915.683 3697.61 915.683ZM3605.95 915.683C3617.82 915.683 3626.99 919.47 3633.46 927.043 3639.94 934.616 3643.17 945.331 3643.17 959.189L3643.17 967.084 3586.21 967.084C3586.8 974.282 3589.21 979.975 3593.42 984.164 3597.64 988.354 3602.94 990.449 3609.33 990.449 3618.3 990.449 3625.61 986.823 3631.25 979.572L3641.8 989.643C3638.31 994.853 3633.65 998.895 3627.82 1001.77 3622 1004.64 3615.46 1006.08 3608.21 1006.08 3595.8 1006.08 3585.74 1002.17 3578.03 994.356 3570.33 986.541 3566.47 976.135 3566.47 963.137L3566.47 960.72C3566.47 952.018 3568.15 944.244 3571.51 937.396 3574.87 930.548 3579.58 925.217 3585.65 921.403 3591.72 917.59 3598.48 915.683 3605.95 915.683ZM3517.41 915.683C3527.83 915.683 3536.25 918.261 3542.66 923.417 3549.08 928.574 3552.29 935.261 3552.29 943.478L3532.71 943.478C3532.71 939.719 3531.32 936.59 3528.52 934.092 3525.73 931.595 3522.02 930.346 3517.41 930.346 3513.11 930.346 3509.6 931.34 3506.89 933.327 3504.18 935.314 3502.82 937.973 3502.82 941.303 3502.82 944.311 3504.09 946.647 3506.61 948.312 3509.13 949.977 3514.24 951.656 3521.92 953.348 3529.6 955.04 3535.63 957.054 3540 959.39 3544.38 961.727 3547.63 964.533 3549.75 967.81 3551.88 971.086 3552.94 975.06 3552.94 979.733 3552.94 987.575 3549.69 993.926 3543.19 998.787 3536.69 1003.65 3528.17 1006.08 3517.65 1006.08 3510.5 1006.08 3504.14 1004.79 3498.55 1002.21 3492.97 999.633 3488.62 996.088 3485.5 991.577 3482.39 987.065 3480.83 982.204 3480.83 976.994L3499.84 976.994C3500.11 981.613 3501.86 985.172 3505.08 987.669 3508.3 990.167 3512.57 991.415 3517.89 991.415 3523.05 991.415 3526.97 990.435 3529.65 988.475 3532.34 986.514 3533.68 983.95 3533.68 980.781 3533.68 977.289 3532.24 974.631 3529.37 972.805 3526.5 970.978 3521.73 969.367 3515.07 967.971 3508.41 966.574 3502.85 964.802 3498.39 962.653 3488.62 957.927 3483.73 951.079 3483.73 942.109 3483.73 934.589 3486.9 928.305 3493.24 923.256 3499.57 918.207 3507.63 915.683 3517.41 915.683ZM3307.82 915.683C3318.03 915.683 3326.17 918.248 3332.23 923.377 3338.3 928.507 3341.42 935.717 3341.58 945.009L3341.58 984.326C3341.58 992.167 3342.68 998.425 3344.88 1003.1L3344.88 1004.47 3324.9 1004.47C3324.04 1002.8 3323.29 1000.09 3322.65 996.33 3316.42 1002.83 3308.79 1006.08 3299.77 1006.08 3291.01 1006.08 3283.87 1003.58 3278.34 998.586 3272.8 993.591 3270.04 987.414 3270.04 980.056 3270.04 970.764 3273.49 963.633 3280.39 958.665 3287.29 953.697 3297.16 951.213 3310 951.213L3322 951.213 3322 945.493C3322 940.981 3320.74 937.369 3318.22 934.656 3315.69 931.944 3311.85 930.588 3306.69 930.588 3302.24 930.588 3298.58 931.702 3295.74 933.931 3292.89 936.16 3291.47 938.994 3291.47 942.431L3271.89 942.431C3271.89 937.651 3273.47 933.179 3276.64 929.017 3279.81 924.854 3284.12 921.591 3289.57 919.228 3295.03 916.865 3301.11 915.683 3307.82 915.683ZM3224.93 915.683C3243.08 915.683 3252.32 926.076 3252.64 946.862L3252.64 1004.47 3233.06 1004.47 3233.06 947.99C3233.06 942.458 3231.87 938.362 3229.48 935.704 3227.09 933.045 3223.18 931.716 3217.76 931.716 3209.86 931.716 3203.98 935.288 3200.11 942.431L3200.11 1004.47 3180.53 1004.47 3180.53 917.294 3198.98 917.294 3199.55 927.365C3205.99 919.577 3214.45 915.683 3224.93 915.683ZM2967.93 915.683C2986.08 915.683 2995.32 926.076 2995.64 946.862L2995.64 1004.47 2976.06 1004.47 2976.06 947.99C2976.06 942.458 2974.87 938.362 2972.48 935.704 2970.09 933.045 2966.18 931.716 2960.76 931.716 2952.86 931.716 2946.98 935.288 2943.11 942.431L2943.11 1004.47 2923.53 1004.47 2923.53 917.294 2941.98 917.294 2942.55 927.365C2948.99 919.577 2957.45 915.683 2967.93 915.683ZM2871.95 915.683C2883.82 915.683 2892.99 919.47 2899.46 927.043 2905.94 934.616 2909.17 945.331 2909.17 959.189L2909.17 967.084 2852.21 967.084C2852.8 974.282 2855.21 979.975 2859.42 984.164 2863.64 988.354 2868.94 990.449 2875.33 990.449 2884.3 990.449 2891.61 986.823 2897.25 979.572L2907.8 989.643C2904.31 994.853 2899.65 998.895 2893.82 1001.77 2888 1004.64 2881.46 1006.08 2874.21 1006.08 2861.8 1006.08 2851.74 1002.17 2844.03 994.356 2836.33 986.541 2832.47 976.135 2832.47 963.137L2832.47 960.72C2832.47 952.018 2834.15 944.244 2837.51 937.396 2840.87 930.548 2845.58 925.217 2851.65 921.403 2857.72 917.59 2864.48 915.683 2871.95 915.683ZM2735.93 915.683C2747.58 915.683 2755.56 920.141 2759.86 929.057 2766.19 920.141 2775.11 915.683 2786.6 915.683 2796.22 915.683 2803.37 918.342 2808.07 923.659 2812.77 928.977 2815.18 936.818 2815.28 947.185L2815.28 1004.47 2795.71 1004.47 2795.71 947.748C2795.71 942.216 2794.5 938.161 2792.08 935.583 2789.66 933.005 2785.66 931.716 2780.08 931.716 2775.62 931.716 2771.98 932.911 2769.16 935.301 2766.34 937.691 2764.37 940.82 2763.24 944.687L2763.32 1004.47 2743.74 1004.47 2743.74 947.104C2743.47 936.845 2738.24 931.716 2728.03 931.716 2720.19 931.716 2714.63 934.912 2711.35 941.303L2711.35 1004.47 2691.78 1004.47 2691.78 917.294 2710.23 917.294 2710.79 926.398C2716.91 919.255 2725.29 915.683 2735.93 915.683ZM2591.93 915.683C2603.58 915.683 2611.56 920.141 2615.86 929.057 2622.19 920.141 2631.11 915.683 2642.6 915.683 2652.22 915.683 2659.37 918.342 2664.07 923.659 2668.77 928.977 2671.18 936.818 2671.28 947.185L2671.28 1004.47 2651.71 1004.47 2651.71 947.748C2651.71 942.216 2650.5 938.161 2648.08 935.583 2645.66 933.005 2641.66 931.716 2636.08 931.716 2631.62 931.716 2627.98 932.911 2625.16 935.301 2622.34 937.691 2620.37 940.82 2619.24 944.687L2619.32 1004.47 2599.74 1004.47 2599.74 947.104C2599.47 936.845 2594.24 931.716 2584.03 931.716 2576.19 931.716 2570.63 934.912 2567.35 941.303L2567.35 1004.47 2547.78 1004.47 2547.78 917.294 2566.23 917.294 2566.79 926.398C2572.91 919.255 2581.29 915.683 2591.93 915.683ZM2490.6 915.683C2502.36 915.683 2511.91 919.47 2519.24 927.043 2526.57 934.616 2530.53 944.66 2531.12 957.175L2531.2 961.767C2531.2 970.361 2529.55 978.041 2526.25 984.809 2522.94 991.577 2518.22 996.813 2512.07 1000.52 2505.92 1004.23 2498.81 1006.08 2490.76 1006.08 2478.46 1006.08 2468.61 1001.98 2461.23 993.792 2453.84 985.601 2450.15 974.685 2450.15 961.042L2450.15 960.075C2450.15 951.535 2451.84 943.841 2455.23 936.993 2458.61 930.145 2463.36 924.881 2469.49 921.202 2475.61 917.523 2482.65 915.683 2490.6 915.683ZM2293.95 915.683C2305.82 915.683 2314.99 919.47 2321.46 927.043 2327.94 934.616 2331.17 945.331 2331.17 959.189L2331.17 967.084 2274.21 967.084C2274.8 974.282 2277.21 979.975 2281.42 984.164 2285.64 988.354 2290.94 990.449 2297.33 990.449 2306.3 990.449 2313.61 986.823 2319.25 979.572L2329.8 989.643C2326.31 994.853 2321.65 998.895 2315.82 1001.77 2310 1004.64 2303.46 1006.08 2296.21 1006.08 2283.8 1006.08 2273.74 1002.17 2266.03 994.356 2258.33 986.541 2254.47 976.135 2254.47 963.137L2254.47 960.72C2254.47 952.018 2256.15 944.244 2259.51 937.396 2262.87 930.548 2267.58 925.217 2273.65 921.403 2279.72 917.59 2286.49 915.683 2293.95 915.683ZM1823.6 915.683C1835.36 915.683 1844.91 919.47 1852.24 927.043 1859.57 934.616 1863.53 944.66 1864.12 957.175L1864.2 961.767C1864.2 970.361 1862.55 978.041 1859.25 984.809 1855.94 991.577 1851.22 996.813 1845.07 1000.52 1838.92 1004.23 1831.81 1006.08 1823.76 1006.08 1811.46 1006.08 1801.61 1001.98 1794.23 993.792 1786.84 985.601 1783.15 974.685 1783.15 961.042L1783.15 960.075C1783.15 951.535 1784.84 943.841 1788.23 936.993 1791.61 930.145 1796.36 924.881 1802.49 921.202 1808.61 917.523 1815.65 915.683 1823.6 915.683ZM3115.65 912.058 3098.65 960.72 3132.65 960.72ZM3020.77 896.105 3040.35 896.105 3040.35 917.294 3055.74 917.294 3055.74 931.796 3040.35 931.796 3040.35 980.458C3040.35 983.789 3041.01 986.192 3042.32 987.669 3043.64 989.146 3045.99 989.885 3049.37 989.885 3051.63 989.885 3053.91 989.616 3056.22 989.079L3056.22 1004.23C3051.76 1005.46 3047.47 1006.08 3043.33 1006.08 3028.29 1006.08 3020.77 997.78 3020.77 981.184L3020.77 931.796 3006.43 931.796 3006.43 917.294 3020.77 917.294ZM3106.55 887.163 3124.84 887.163 3169.23 1004.47 3147.96 1004.47 3138.37 977.155 3092.93 977.155 3083.43 1004.47 3062.24 1004.47ZM1966.41 887.163 2059.47 887.163 2059.47 903.598 2022.89 903.598 2022.89 1004.47 2002.67 1004.47 2002.67 903.598 1966.41 903.598ZM2392.18 885.551C2405.13 885.551 2415.55 889.056 2423.44 896.065 2431.34 903.074 2435.93 912.997 2437.22 925.834L2416.92 925.834C2415.95 917.402 2413.49 911.319 2409.54 907.586 2405.6 903.853 2399.81 901.987 2392.18 901.987 2383.32 901.987 2376.51 905.226 2371.76 911.704 2367.01 918.182 2364.58 927.684 2364.47 940.211L2364.47 950.614C2364.47 963.3 2366.74 972.977 2371.28 979.643 2375.81 986.31 2382.46 989.643 2391.22 989.643 2399.22 989.643 2405.23 987.844 2409.26 984.245 2413.29 980.646 2415.84 974.658 2416.92 966.279L2437.22 966.279C2436.04 978.793 2431.42 988.555 2423.36 995.565 2415.31 1002.57 2404.59 1006.08 2391.22 1006.08 2381.87 1006.08 2373.64 1003.86 2366.52 999.432 2359.41 995.001 2353.91 988.703 2350.05 980.539 2346.18 972.375 2344.17 962.895 2344 952.099L2344 941.142C2344 930.078 2345.96 920.329 2349.89 911.896 2353.81 903.464 2359.43 896.965 2366.76 892.399 2374.1 887.834 2382.57 885.551 2392.18 885.551ZM3363.07 880.717 3382.64 880.717 3382.64 1004.47 3363.07 1004.47ZM2164.78 880.717 2184.35 880.717 2184.35 925.673C2189.99 919.013 2197.59 915.683 2207.15 915.683 2217.79 915.683 2226.14 919.631 2232.21 927.526 2238.28 935.422 2241.31 946.459 2241.31 960.639L2241.31 961.767C2241.31 975.302 2238.29 986.071 2232.25 994.074 2226.21 1002.08 2217.9 1006.08 2207.32 1006.08 2197.11 1006.08 2189.16 1002.4 2183.47 995.041L2182.5 1004.47 2164.78 1004.47Z" fill="url(#fill3)" fill-rule="evenodd"/><text fill="#000000" fill-opacity="0" font-family="Arial,Arial_MSFontService,sans-serif" font-size="158.958" x="1697.75" y="1019.81">youTubeCommentAnalyser</text><path d="M1225 874.334C1225 847.088 1247.09 825 1274.33 825L1598.67 825C1625.91 825 1648 847.088 1648 874.334L1648 1071.67C1648 1098.91 1625.91 1121 1598.67 1121L1274.33 1121C1247.09 1121 1225 1098.91 1225 1071.67Z" stroke="url(#stroke4)" stroke-width="13.75" stroke-miterlimit="8" fill="none" fill-rule="evenodd"/><path d="M1562 1121 1562 1216 1491 1121Z" stroke="url(#stroke5)" stroke-width="13.75" stroke-miterlimit="8" fill="none" fill-rule="evenodd"/></g></svg>